Coordinates
version=1
nRows=10
nColumns=33
inDegrees=yes

Units are S.I. units (second, meters, Newtons, ...)
Angles are in degrees.

endheader
time	ground_thorax_rot_x	ground_thorax_rot_y	ground_thorax_rot_z	ground_thorax_tx	ground_thorax_ty	ground_thorax_tz	clav_prot_r	clav_elev_r	scapula_abduction_r	scapula_elevation_r	scapula_upward_rot_r	scapula_winging_r	shoulder_elv_r	plane_of_elev_r	axial_rot_r	elbow_flexion_r	pro_sup_r	wrist_flex_r	wrist_dev_r	clav_prot_l	clav_elev_l	scapula_abduction_l	scapula_elevation_l	scapula_upward_rot_l	scapula_winging_l	shoulder_elv_l	plane_of_elev_l	axial_rot_l	elbow_flexion_l	pro_sup_l	wrist_flex_l	wrist_dev_l
      7.87000000	    -21.34323275	    -34.59330791	     55.97155421	    -83.52532180	    772.00661615	      9.56041906	      8.12012555	    -45.00000000	     36.75518597	    -45.00000000	    -45.00000000	  -1538.60137569	  -3896.17141484	     28.39632662	     76.43951781	    729.54345620	     25.08264818	     17.62938541	     11.05842570	     13.59213072	     37.37000472	    -30.28502751	    -45.00000000	    -45.00000000	     79.22472961	  -2452.64078686	     21.05475552	    -47.15747611	   -353.40491367	     21.80228143	     10.40512361	    -18.58172878
      7.88000000	    -21.59614011	    -34.48360172	     55.45491974	    -84.94730592	    772.21885278	      9.58298630	      8.06630877	    -45.00000000	     37.04304469	    -45.00000000	    -45.00000000	  -1538.64375570	  -3896.08488653	     28.60713072	     76.21146431	    729.80710250	     24.63032031	     17.68333408	     11.09304133	     13.59092628	     37.25204427	    -30.56437483	    -45.00000000	    -45.00000000	     79.44304875	  -2452.65615593	     21.07207345	    -47.07363439	   -353.21190228	     21.55766818	     10.39105842	    -18.63684992
      7.89000000	    -21.68609536	    -34.44331467	     55.27226507	    -86.44380372	    772.45626755	      9.60535347	      8.01756226	    -45.00000000	     36.96992006	    -45.00000000	    -45.00000000	  -1538.62975470	  -3895.88833101	     28.67060777	     75.81568759	    729.85595395	     24.21159760	     17.70349754	     11.12346974	     13.69034643	     37.52534856	    -30.54206863	    -45.00000000	    -45.00000000	     79.50620510	  -2452.43825537	     21.13563674	    -46.93643133	   -353.05210314	     21.28080723	     10.34431620	    -18.66997554
      7.90000000	    -21.99768518	    -34.29344530	     54.80032880	    -87.98097798	    772.71968989	      9.62380082	      8.07638743	    -45.00000000	     37.05624662	    -45.00000000	    -45.00000000	  -1538.73544912	  -3895.92593209	     28.88861062	     75.44491402	    729.91166275	     23.81039941	     17.69104817	     11.14056671	     13.64805416	     37.26644913	    -30.83637847	    -45.00000000	    -45.00000000	     79.70379900	  -2452.49803175	     21.23343308	    -46.86193760	   -353.00507026	     21.00513918	     10.34893887	    -18.68189658
      7.91000000	    -22.08269640	    -34.23908503	     54.64711710	    -89.53523000	    773.01525258	      9.63587454	      8.02160380	    -45.00000000	     36.94384901	    -45.00000000	    -45.00000000	  -1538.68708794	  -3895.70223438	     28.94078279	     74.94961962	    729.89780882	     23.39785594	     17.70483048	     11.16957447	     13.75204997	     37.45723612	    -30.85757875	    -45.00000000	    -45.00000000	     79.77050827	  -2452.33982362	     21.25670822	    -46.69892296	   -352.95756701	     20.68320446	     10.31365932	    -18.68760885
      7.92000000	    -22.29756967	    -34.08312724	     54.37917258	    -91.09444841	    773.34326917	      9.64036144	      8.10143858	    -45.00000000	     36.81616591	    -45.00000000	    -45.00000000	  -1538.75609813	  -3895.60542663	     29.05691871	     74.66730830	    729.85618436	     22.96145779	     17.67342714	     11.17168427	     13.79592524	     37.45804863	    -30.91837135	    -45.00000000	    -45.00000000	     79.82879118	  -2452.21402108	     21.37875052	    -46.47610841	   -352.84433075	     20.29005338	     10.28791910	    -18.69280876
      7.93000000	    -22.44852854	    -33.96041570	     54.13099755	    -92.67609116	    773.70824275	      9.63843666	      8.06842329	    -45.00000000	     36.84972973	    -45.00000000	    -45.00000000	  -1538.71523346	  -3895.38741599	     29.09951165	     74.27541786	    729.90721108	     22.46598766	     17.69468217	     11.21883377	     13.86115157	     37.54720579	    -30.98996689	    -45.00000000	    -45.00000000	     79.90312110	  -2452.06972688	     21.42446519	    -46.26279703	   -352.74746314	     19.86282286	     10.29448251	    -18.70086342
      7.94000000	    -22.95865798	    -33.67571995	     53.28683393	    -94.28206731	    774.11321845	      9.63131738	      8.08741961	    -45.00000000	     37.16720530	    -45.00000000	    -45.00000000	  -1538.84260205	  -3895.59240729	     29.53590897	     73.98155966	    729.97242565	     22.05295204	     17.68689614	     11.15807519	     13.70525086	     37.02114424	    -31.58548276	    -45.00000000	    -45.00000000	     80.31030913	  -2452.40028351	     21.61004730	    -46.17990950	   -352.87188686	     19.53064168	     10.35191507	    -18.67960472
      7.95000000	    -22.96782434	    -33.61519628	     53.21699604	    -95.93025185	    774.56598915	      9.61989512	      7.90560169	    -45.00000000	     37.23319365	    -45.00000000	    -45.00000000	  -1538.68959886	  -3895.11311449	     29.38663266	     73.73734907	    730.21835976	     21.66278159	     17.79698084	     11.26118502	     13.91525535	     37.59780581	    -31.51016912	    -45.00000000	    -45.00000000	     80.20472351	  -2452.02519818	     21.49035175	    -45.85404787	   -352.59332967	     19.09040532	     10.28997970	    -18.72403309
      7.96000000	    -23.22402011	    -33.42137243	     52.94618427	    -97.61689839	    775.07026664	      9.60583944	      8.05575562	    -45.00000000	     37.00704486	    -45.00000000	    -45.00000000	  -1538.83558484	  -3895.10168254	     29.64761671	     73.31582548	    730.00301052	     21.24464525	     17.71036767	     11.16938891	     13.85564011	     37.35343173	    -31.61484700	    -45.00000000	    -45.00000000	     80.39595555	  -2452.00074928	     21.75637723	    -45.68060487	   -352.65100206	     18.64574887	     10.36414967	    -18.68745607
